<svg id="visual" viewBox="0 0 900 600" width="900" height="600" xmlns="http://www.w3.org/2000/svg" xmlns:xlink="http://www.w3.org/1999/xlink" version="1.1"><rect x="0" y="0" width="900" height="600" fill="#2f424e"></rect><path d="M0 417L25 421.8C50 426.7 100 436.3 150 443.8C200 451.3 250 456.7 300 442.7C350 428.7 400 395.3 450 386C500 376.7 550 391.3 600 408C650 424.7 700 443.3 750 441.7C800 440 850 418 875 407L900 396L900 601L875 601C850 601 800 601 750 601C700 601 650 601 600 601C550 601 500 601 450 601C400 601 350 601 300 601C250 601 200 601 150 601C100 601 50 601 25 601L0 601Z" fill="#43515a"></path><path d="M0 535L25 525.8C50 516.7 100 498.3 150 488.7C200 479 250 478 300 480.5C350 483 400 489 450 500.3C500 511.7 550 528.3 600 531.8C650 535.3 700 525.7 750 521.7C800 517.7 850 519.3 875 520.2L900 521L900 601L875 601C850 601 800 601 750 601C700 601 650 601 600 601C550 601 500 601 450 601C400 601 350 601 300 601C250 601 200 601 150 601C100 601 50 601 25 601L0 601Z" fill="#38454c"></path></svg>